<svg xmlns="http://www.w3.org/2000/svg" viewBox="0 0 60 30">
  <!-- Mavi zemin -->
  <rect width="60" height="30" fill="#012169"/>

  <!-- Beyaz çaprazlar -->
  <polygon points="0,0 6,0 60,24 60,30 54,30 0,6" fill="#FFFFFF"/>
  <polygon points="60,0 54,0 0,24 0,30 6,30 60,6" fill="#FFFFFF"/>

  <!-- Kırmızı çaprazlar -->
  <polygon points="0,0 3,0 60,27 60,30 57,30 0,3" fill="#C8102E"/>
  <polygon points="60,0 57,0 0,27 0,30 3,30 60,3" fill="#C8102E"/>

  <!-- Beyaz artı -->
  <rect x="25" width="10" height="30" fill="#FFFFFF"/>
  <rect y="10" width="60" height="10" fill="#FFFFFF"/>

  <!-- Kırmızı artı -->
  <rect x="27" width="6" height="30" fill="#C8102E"/>
  <rect y="12" width="60" height="6" fill="#C8102E"/>
</svg>
