<svg xmlns="http://www.w3.org/2000/svg" viewBox="0 0 640 480"><g fill="red"><path d="M0 0h640v480H0z"/><path d="M368 240c-28.57 0-51.37 23.65-51.37 52.78 0 29.22 22.8 52.93 51.37 52.93 28.57 0 51.37-23.71 51.37-52.93 0-29.13-22.8-52.78-51.37-52.78zm0 75.56c-12.64 0-22.87-10.23-22.87-22.78 0-12.54 10.23-22.77 22.87-22.77 12.64 0 22.87 10.23 22.87 22.77 0 12.55-10.23 22.78-22.87 22.78z" fill="#fff"/><path d="M252.67 240c-16 0-28.96 12.54-28.96 28.05 0 15.5 12.96 28.04 28.96 28.04 16 0 28.96-12.54 28.96-28.04 0-15.51-12.96-28.05-28.96-28.05zm0 37.54c-4.64 0-8.33-3.69-8.33-8.06 0-4.39 3.69-8.06 8.33-8.06 4.64 0 8.33 3.67 8.33 8.06 0 4.37-3.69 8.06-8.33 8.06z" fill="#fff"/></g><path d="M171.19 240c-35.1 0-63.69 28.62-63.69 64.08 0 35.46 28.59 64.09 63.69 64.09 35.1 0 63.69-28.63 63.69-64.09 0-35.46-28.59-64.08-63.69-64.08zm0 89.28c-13.42 0-24.29-10.88-24.29-25.25 0-14.37 10.87-25.26 24.29-25.26 13.42 0 24.29 10.89 24.29 25.26 0 14.37-10.87 25.25-24.29 25.25z" fill="#fff"/><path d="M0 0h640v150H0zm0 480h640V330H0z" fill="#ff0"/></svg>